<?xml version="1.0" encoding="utf-8"?>
<!-- Generator: Adobe Illustrator 16.0.3, SVG Export Plug-In . SVG Version: 6.00 Build 0)  -->
<!DOCTYPE svg PUBLIC "-//W3C//DTD SVG 1.1//EN" "http://www.w3.org/Graphics/SVG/1.1/DTD/svg11.dtd">
<svg version="1.1" id="Capa_1" xmlns="http://www.w3.org/2000/svg" xmlns:xlink="http://www.w3.org/1999/xlink" x="0px" y="0px"
	 width="100px" height="100px" viewBox="0 0 100 100" enable-background="new 0 0 100 100" xml:space="preserve">
<g>
	<path fill="#211914" d="M19.876,36.937c-0.721-1.167-1.683-2.016-2.883-2.549c-1.202-0.532-2.455-0.798-3.759-0.798
		c-0.961,0-1.905,0.121-2.832,0.36c-0.927,0.24-1.76,0.601-2.498,1.081c-0.738,0.481-1.331,1.116-1.776,1.905
		c-0.447,0.79-0.67,1.717-0.67,2.78c0,0.824,0.129,1.554,0.386,2.189c0.257,0.635,0.678,1.21,1.262,1.725
		c0.583,0.515,1.373,0.996,2.369,1.441c0.995,0.447,2.214,0.895,3.656,1.34c1.407,0.445,2.771,0.926,4.093,1.441
		c1.321,0.515,2.489,1.168,3.501,1.957c1.012,0.789,1.819,1.776,2.42,2.96c0.601,1.185,0.902,2.67,0.902,4.454
		c0,1.82-0.361,3.398-1.082,4.738c-0.721,1.338-1.673,2.445-2.858,3.32c-1.184,0.875-2.549,1.528-4.094,1.957
		s-3.141,0.644-4.789,0.644c-1.064,0-2.129-0.095-3.193-0.283s-2.085-0.48-3.063-0.876c-0.979-0.393-1.897-0.908-2.755-1.544
		S0.618,63.765,0,62.838l3.708-3.037c0.789,1.338,1.887,2.351,3.295,3.037c1.407,0.688,2.901,1.029,4.48,1.029
		c0.927,0,1.862-0.137,2.806-0.412c0.944-0.273,1.793-0.677,2.549-1.209c0.754-0.532,1.372-1.193,1.854-1.982
		c0.48-0.79,0.721-1.699,0.721-2.729c0-1.134-0.189-2.051-0.566-2.755c-0.378-0.703-0.961-1.313-1.751-1.828
		c-0.79-0.516-1.785-0.979-2.986-1.391c-1.202-0.412-2.609-0.893-4.222-1.441c-1.305-0.412-2.506-0.883-3.605-1.416
		c-1.099-0.531-2.051-1.185-2.857-1.957c-0.807-0.772-1.442-1.699-1.906-2.78c-0.463-1.082-0.695-2.377-0.695-3.888
		c0-1.75,0.343-3.277,1.03-4.583c0.687-1.304,1.613-2.395,2.781-3.27c1.167-0.875,2.489-1.536,3.965-1.983
		c1.476-0.446,3.021-0.669,4.634-0.669c2.06,0,3.939,0.317,5.639,0.953c1.7,0.635,3.218,1.743,4.557,3.321L19.876,36.937z"/>
	<path fill="#211914" d="M41.941,29.441h4.257l16.221,38.152h-5.282l-3.879-9.376H34.181l-3.934,9.376h-5.119L41.941,29.441z
		 M43.989,35.261h-0.107l-7.922,18.752h15.575L43.989,35.261z"/>
	<path fill="#211914" d="M80.839,67.884c-2.781,0-5.33-0.481-7.647-1.441s-4.326-2.292-6.024-3.991
		c-1.699-1.699-3.021-3.725-3.965-6.076c-0.944-2.351-1.417-4.899-1.417-7.646c0-2.746,0.473-5.294,1.417-7.646
		c0.943-2.351,2.266-4.377,3.965-6.076c1.698-1.699,3.707-3.029,6.024-3.991c2.317-0.96,4.866-1.441,7.647-1.441
		c2.78,0,5.328,0.481,7.646,1.441c2.317,0.961,4.326,2.292,6.024,3.991c1.699,1.699,3.021,3.725,3.965,6.076
		c0.944,2.352,1.417,4.9,1.417,7.646c0,2.747-0.473,5.296-1.417,7.646c-0.943,2.352-2.266,4.377-3.965,6.076
		c-1.698,1.699-3.707,3.031-6.024,3.991S83.619,67.884,80.839,67.884z M80.839,63.867c2.128,0,4.076-0.395,5.843-1.184
		c1.769-0.79,3.288-1.871,4.559-3.244c1.27-1.373,2.257-2.979,2.961-4.814c0.703-1.836,1.055-3.803,1.055-5.896
		s-0.352-4.059-1.055-5.896c-0.704-1.836-1.691-3.441-2.961-4.814c-1.271-1.373-2.79-2.454-4.559-3.244
		c-1.767-0.79-3.715-1.184-5.843-1.184c-2.13,0-4.078,0.395-5.845,1.184c-1.769,0.79-3.288,1.872-4.557,3.244
		c-1.271,1.373-2.259,2.979-2.963,4.814c-0.703,1.836-1.055,3.802-1.055,5.896s0.352,4.061,1.055,5.896
		c0.704,1.836,1.691,3.441,2.963,4.814c1.269,1.373,2.788,2.454,4.557,3.244C76.761,63.473,78.709,63.867,80.839,63.867z"/>
</g>
</svg>
